<?xml version="1.0" encoding="UTF-8"?>
<svg version="1.1" xmlns="http://www.w3.org/2000/svg" width="500" height="500">
<path d="M0 0 C5.24099655 0.41105855 8.24039194 1.24039194 12 5 C12 5.66 12 6.32 12 7 C12.66 7 13.32 7 14 7 C14 7.66 14 8.32 14 9 C14.66 9 15.32 9 16 9 C16 9.66 16 10.32 16 11 C17.65 11.66 19.3 12.32 21 13 C21 13.66 21 14.32 21 15 C21.81597656 15.25265625 22.63195312 15.5053125 23.47265625 15.765625 C27.58319132 17.20408467 31.488942 18.9206062 35.4375 20.75 C36.52514648 21.23339844 36.52514648 21.23339844 37.63476562 21.7265625 C42.6832047 24.06707873 47.23035135 26.83760169 51 31 C51 31.66 51 32.32 51 33 C51.66 33 52.32 33 53 33 C53.98669759 34.89192475 54.9640602 36.78871978 55.9375 38.6875 C56.75541016 40.27111328 56.75541016 40.27111328 57.58984375 41.88671875 C58.8470576 44.66234047 59.56069569 47.00272126 60 50 C60.94875 49.154375 61.8975 48.30875 62.875 47.4375 C75.32363174 36.90979941 85.55381225 34.18666475 101.55053711 32.84301758 C107.88071178 32.25892465 113.38253057 30.98959604 119.37109375 28.8046875 C122.08155112 27.97503784 124.18351363 27.77150199 127 28 C128 29 128 29 128.3125 31.75 C128.12461426 41.93758223 123.12743682 51.47136342 118 60 C117.34 60 116.68 60 116 60 C115.690625 60.61875 115.38125 61.2375 115.0625 61.875 C114.375 63.25 113.6875 64.625 113 66 C112.34 66 111.68 66 111 66 C111 66.66 111 67.32 111 68 C109.07379404 69.56391017 107.16896218 70.97975268 105.125 72.375 C104.24122681 72.98226929 104.24122681 72.98226929 103.33959961 73.60180664 C98.47026647 76.85835024 93.56907447 79.16415409 88 81 C87.05125 81.37125 86.1025 81.7425 85.125 82.125 C80.16389094 83.51411054 75.08846701 84.22602605 70 85 C69.79246094 85.66902344 69.58492188 86.33804688 69.37109375 87.02734375 C65.31668215 99.66557239 60.71500097 111.76258343 53.6875 123.0625 C53.2548584 123.75956055 52.8222168 124.45662109 52.37646484 125.17480469 C51.31271505 126.82468522 50.1638418 128.41913262 49 130 C48.34 130 47.68 130 47 130 C46.77570313 130.70382813 46.55140625 131.40765625 46.3203125 132.1328125 C44.71767532 135.6130956 42.4803943 138.12703726 39.875 140.875 C39.3792749 141.40456299 38.8835498 141.93412598 38.37280273 142.47973633 C31.04056839 150.22465344 22.82815475 157.01043655 14 163 C13.34 163 12.68 163 12 163 C12 163.66 12 164.32 12 165 C10.02 165.66 8.04 166.32 6 167 C6 167.66 6 168.32 6 169 C-17.52481273 181.62314378 -17.52481273 181.62314378 -27.28125 185.03515625 C-30.11737954 185.99831223 -30.11737954 185.99831223 -33.21875 187.4609375 C-37.66951373 189.39149864 -42.28547139 190.46895253 -47 191.5625 C-48.39810913 191.88782715 -48.39810913 191.88782715 -49.82446289 192.21972656 C-96.68390938 202.85438011 -139.40354613 193.49565973 -182.0625 173.5 C-186.70684315 171.3301226 -191.35250665 169.16312218 -196 167 C-197.01723145 166.5246582 -198.03446289 166.04931641 -199.08251953 165.55957031 C-214.75187198 158.31606451 -229.29769431 157.45661808 -246.31640625 157.17578125 C-253.9039615 157.04797236 -261.43492941 156.57393912 -269 156 C-268.47269287 156.66153076 -267.94538574 157.32306152 -267.40209961 158.00463867 C-262.125 164.625 -262.125 164.625 -261 168 C-259.68199535 168.69648113 -258.34387639 169.35485004 -257 170 C-254.76240038 171.66024367 -252.56109239 173.33753647 -250.375 175.0625 C-246.37877222 178.32192349 -246.37877222 178.32192349 -242 181 C-242 181.66 -242 182.32 -242 183 C-240.98486328 183.36351562 -240.98486328 183.36351562 -239.94921875 183.734375 C-236.3729432 185.26909457 -233.12187585 187.22108996 -229.8125 189.25 C-229.14903564 189.65186523 -228.48557129 190.05373047 -227.80200195 190.46777344 C-224.91168447 192.21914107 -222.02880752 193.98232086 -219.1484375 195.75 C-213.56630253 199.15244417 -207.87462875 202.13710343 -202 205 C-200.06206173 205.97829896 -198.12458113 206.95750495 -196.1875 207.9375 C-194.12654432 208.96144756 -192.06403028 209.98226431 -190 211 C-188.54013672 211.72703125 -188.54013672 211.72703125 -187.05078125 212.46875 C-164.51365821 223.31888862 -139.79826588 230.12034942 -115 233 C-113.88238281 233.13148438 -112.76476562 233.26296875 -111.61328125 233.3984375 C-108.73971481 233.68234126 -105.88448149 233.87049267 -103 234 C-101.93910156 234.05285156 -100.87820312 234.10570312 -99.78515625 234.16015625 C-74.64922031 234.79897009 -48.87240465 229.35764266 -26 219 C-25.26861816 218.67660645 -24.53723633 218.35321289 -23.78369141 218.02001953 C-12.95217805 213.20875506 -2.86782988 207.74124659 7.04833984 201.26171875 C9.67192566 199.56561023 12.33318199 197.93389132 14.99462891 196.2980957 C28.49544331 187.97966111 41.42899366 178.85165326 54.15625 169.3984375 C58.78875698 166 58.78875698 166 61 166 C61 165.34 61 164.68 61 164 C62.6953125 162.625 62.6953125 162.625 65.125 161 C70.2627075 157.51106969 75.31577884 153.92187031 80.35205078 150.2890625 C84.77941312 147.11158911 87.30917577 145.58120769 92.8984375 145.65234375 C96.72159464 146.28479911 98.37812065 148.19084356 101 151 C102.84069892 154.04115474 103 155.80546447 103 159.375 C101.74624974 163.91984471 99.54512407 166.90624451 96 170 C95.34 170 94.68 170 94 170 C94 170.66 94 171.32 94 172 C92.65478516 173.23681641 92.65478516 173.23681641 90.7890625 174.6015625 C89.78746094 175.33632813 89.78746094 175.33632813 88.765625 176.0859375 C88.05921875 176.59382812 87.3528125 177.10171875 86.625 177.625 C85.57699219 178.3984375 85.57699219 178.3984375 84.5078125 179.1875 C79.26310351 183 79.26310351 183 77 183 C77 183.66 77 184.32 77 185 C75.50292969 186.28100586 75.50292969 186.28100586 73.421875 187.71484375 C72.67292969 188.23626953 71.92398437 188.75769531 71.15234375 189.29492188 C70.35957031 189.83697266 69.56679688 190.37902344 68.75 190.9375 C67.20284299 192.00870738 65.65595931 193.08030967 64.109375 194.15234375 C63.41811523 194.62663818 62.72685547 195.10093262 62.01464844 195.58959961 C60.61647072 196.56842567 59.25634984 197.60300939 57.93066406 198.67797852 C56 200 56 200 53 200 C53 200.66 53 201.32 53 202 C50.9375 203.55859375 50.9375 203.55859375 48 205.4375 C46.89785156 206.15292969 45.79570312 206.86835938 44.66015625 207.60546875 C43.76514404 208.18627197 43.76514404 208.18627197 42.85205078 208.77880859 C40.33712043 210.43708457 37.86939935 212.15941481 35.39916992 213.88330078 C17.06638554 226.65578702 -1.96184572 239.43779111 -23.140625 246.96484375 C-26.08365334 247.98714419 -26.08365334 247.98714419 -29.1640625 249.44140625 C-60.61658455 263.06254346 -101.7802899 263.62386969 -135 257 C-136.55920166 256.69400879 -136.55920166 256.69400879 -138.14990234 256.38183594 C-151.65448489 253.66151686 -164.45189063 250.20757269 -177.12011719 244.78759766 C-179.85855971 243.64029693 -182.64850527 242.64203943 -185.4375 241.625 C-199.91695133 236.04475805 -213.63647633 228.84274139 -227 221 C-227.88187988 220.48324707 -228.76375977 219.96649414 -229.67236328 219.43408203 C-235.24900038 216.16114868 -240.82000464 212.87878766 -246.37011719 209.56103516 C-248.20125889 208.4741135 -250.04119892 207.40193562 -251.88769531 206.34130859 C-252.80389648 205.80973145 -253.72009766 205.2781543 -254.6640625 204.73046875 C-255.49631348 204.25375732 -256.32856445 203.7770459 -257.18603516 203.28588867 C-257.78464355 202.86154541 -258.38325195 202.43720215 -259 202 C-259 201.34 -259 200.68 -259 200 C-260.04220703 199.64421875 -260.04220703 199.64421875 -261.10546875 199.28125 C-264.52198185 197.7689473 -267.35756671 195.74761633 -270.3125 193.5 C-271.13717773 192.89478516 -271.13717773 192.89478516 -271.97851562 192.27734375 C-273.36007451 191.23731309 -274.68556298 190.12366546 -276 189 C-276 188.34 -276 187.68 -276 187 C-276.66 187 -277.32 187 -278 187 C-278 186.34 -278 185.68 -278 185 C-278.66 185 -279.32 185 -280 185 C-280 184.34 -280 183.68 -280 183 C-280.66 183 -281.32 183 -282 183 C-295.81857688 166.90207024 -299.59787595 148.02512109 -299.8125 127.5625 C-299.84222361 125.87946465 -299.87258528 124.19644045 -299.90356445 122.51342773 C-300.10890119 109.65581356 -299.9990747 96.82624095 -299 84 C-298.91709717 82.8869751 -298.91709717 82.8869751 -298.83251953 81.75146484 C-297.57792581 66.35870161 -292.32871572 54.15769451 -280.61328125 44.03125 C-279 43 -279 43 -276 43 C-276 42.34 -276 41.68 -276 41 C-255.12842952 30.71401072 -226.55848968 34.79317055 -204 35.4375 C-203.30748138 35.45696686 -202.61496277 35.47643372 -201.90145874 35.49649048 C-183.11366323 36.03970968 -166.37426563 37.25980583 -149 45 C-148.11183594 45.38414063 -147.22367188 45.76828125 -146.30859375 46.1640625 C-127.40991416 54.59085314 -109.38368081 64.86535014 -91.61035156 75.41894531 C-81.27318687 81.55101996 -70.9030102 87.14899183 -59.94775391 92.09716797 C-56.59203065 93.65262856 -53.29989124 95.32986595 -50 97 C-50 97.66 -50 98.32 -50 99 C-49.32324219 99.09796875 -48.64648438 99.1959375 -47.94921875 99.296875 C-45.02989771 99.99287207 -42.49949645 101.05195941 -39.78857422 102.32397461 C-26.66033728 108.47611233 -14.09492025 112.41243541 0.5 112.5 C1.84312256 112.50954712 1.84312256 112.50954712 3.21337891 112.51928711 C14.7013867 112.29856893 23.46090105 108.71526551 32 101 C37.03048523 95.300616 40.13552355 89.35136427 42 82 C41.03320312 81.45472656 40.06640625 80.90945312 39.0703125 80.34765625 C18.65747887 68.61152432 18.65747887 68.61152432 15 60 C14.34 60 13.68 60 13 60 C0.65333058 44.76068232 -3.05275682 25.89915621 -3.36328125 6.7421875 C-2.95336395 3.64797304 -2.07188484 2.28508671 0 0 Z M-271 70 C-274.96091895 78.26356423 -275.14889955 87.11016856 -275.09765625 96.08984375 C-275.0962413 97.03436905 -275.09482635 97.97889435 -275.09336853 98.95204163 C-275.0878036 101.94722763 -275.07525767 104.94233687 -275.0625 107.9375 C-275.05748046 109.97721246 -275.05291835 112.01692609 -275.04882812 114.05664062 C-275.03784567 119.03778966 -275.0206054 124.01888185 -275 129 C-271.72517194 129.71687598 -268.60916026 130.15393308 -265.26074219 130.28125 C-264.34919373 130.31798828 -263.43764526 130.35472656 -262.49847412 130.39257812 C-261.03743256 130.44575195 -261.03743256 130.44575195 -259.546875 130.5 C-258.02468353 130.5609082 -258.02468353 130.5609082 -256.47174072 130.62304688 C-253.23129562 130.75246309 -249.99068499 130.87674709 -246.75 131 C-243.52361067 131.12351662 -240.29729356 131.2482694 -237.07110596 131.37695312 C-235.06662846 131.45685795 -233.06203193 131.53384957 -231.05731201 131.60742188 C-222.71467185 131.93906923 -214.72064643 132.60755127 -206.625 134.75 C-205.44164062 135.05421875 -204.25828125 135.3584375 -203.0390625 135.671875 C-197.80409546 137.2547249 -192.93431514 139.66842676 -188 142 C-185.79957057 143.02884134 -183.59904584 144.05747888 -181.3984375 145.0859375 C-180.25705322 145.620979 -179.11566895 146.15602051 -177.93969727 146.70727539 C-133.14023937 167.6664629 -88.38293006 178.51399789 -40 162 C-36.19463525 160.55099858 -32.61739646 158.86319272 -29 157 C-27.74993293 156.39457871 -26.49851851 155.79193505 -25.24609375 155.19140625 C-16.53070955 150.97610194 -7.99391072 146.48896952 0 141 C0 140.67 0 140.34 0 140 C-0.54712646 139.93530518 -1.09425293 139.87061035 -1.65795898 139.80395508 C-27.92181572 136.60907222 -49.35769579 127.82095526 -72.58203125 115.3515625 C-77.53662418 112.6946741 -82.5691548 110.21493143 -87.62890625 107.765625 C-90.34523358 106.34293676 -92.93974493 104.85402875 -95.55859375 103.265625 C-101.77276271 99.49705482 -108.13405098 96.0036572 -114.5 92.5 C-121.67988429 88.54837343 -128.82933382 84.57792219 -135.81713867 80.29296875 C-139.76075026 77.95705923 -143.86639192 75.97381286 -148 74 C-149.02222656 73.50371094 -150.04445313 73.00742188 -151.09765625 72.49609375 C-168.03803101 64.43982494 -183.58416392 61.6790772 -202.265625 61.69921875 C-203.79490268 61.69531901 -205.32417931 61.69098178 -206.85345459 61.68623352 C-210.03352398 61.67883504 -213.21348218 61.67901788 -216.39355469 61.68432617 C-220.44713785 61.69014442 -224.50026758 61.67310243 -228.55377579 61.6499815 C-231.70239878 61.63518825 -234.85091353 61.63437948 -237.99956512 61.63749123 C-239.49374039 61.63698188 -240.98792234 61.63181767 -242.48206329 61.62167931 C-253.18869311 61.55786492 -263.30588908 61.57311661 -271 70 Z " fill="#F4F4F4" transform="translate(343,67)"/>
<path d="M0 0 C2.96239073 4.62873551 2.84418468 8.77849704 2 14.125 C0.45013055 17.2893168 -0.65169007 18.50821993 -3.8359375 19.96484375 C-7.78742051 21.2441553 -9.53080684 21.30932589 -13.5 19.75 C-14.325 19.21375 -15.15 18.6775 -16 18.125 C-16 17.465 -16 16.805 -16 16.125 C-16.66 16.125 -17.32 16.125 -18 16.125 C-20.34728069 12.45737392 -20.4430704 9.40801385 -20 5.125 C-18.28782963 1.76407297 -16.93586045 -0.27708915 -13.75 -2.3125 C-8.48614352 -3.38919792 -4.57467989 -2.85917493 0 0 Z " fill="#EEEEEE" transform="translate(135,157.875)"/>
<path d="M0 0 C1.09570312 0.10183594 2.19140625 0.20367187 3.3203125 0.30859375 C4.58488281 0.43427734 4.58488281 0.43427734 5.875 0.5625 C5.875 0.8925 5.875 1.2225 5.875 1.5625 C-9.28555718 3.27851208 -23.90657681 3.698773 -39.125 2.5625 C-39.125 2.2325 -39.125 1.9025 -39.125 1.5625 C-38.1963916 1.53744385 -37.2677832 1.5123877 -36.31103516 1.48657227 C-32.87064196 1.39152068 -29.43042287 1.29228293 -25.99023438 1.19018555 C-24.50037359 1.14683411 -23.01046305 1.10515916 -21.52050781 1.06518555 C-19.38070673 1.00748785 -17.24115615 0.94379245 -15.1015625 0.87890625 C-13.81330566 0.84224854 -12.52504883 0.80559082 -11.19775391 0.76782227 C-7.04705745 0.49047158 -4.34474424 -0.41598615 0 0 Z " fill="#888890" transform="translate(274.125,260.4375)"/>
<path d="M0 0 C-1.98 0.99 -1.98 0.99 -4 2 C-4 1.34 -4 0.68 -4 0 C-8.55443823 2.0124262 -12.16279652 3.83285739 -15 8 C-14.81306742 11.48228689 -14.01441311 14.67246654 -13 18 C-13.66 18 -14.32 18 -15 18 C-17.34728069 14.33237392 -17.4430704 11.28301385 -17 7 C-15.28782963 3.63907297 -13.93586045 1.59791085 -10.75 -0.4375 C-6.91892462 -1.22112906 -3.85108815 -0.65272681 0 0 Z " fill="#8D8E98" transform="translate(132,156)"/>
<path d="M0 0 C8.25 0.33 16.5 0.66 25 1 C25 1.66 25 2.32 25 3 C21.76607394 4.02451301 19.35474612 3.95041862 16.015625 3.44140625 C14.61376953 3.23354492 14.61376953 3.23354492 13.18359375 3.02148438 C12.21550781 2.87001953 11.24742187 2.71855469 10.25 2.5625 C9.26644531 2.41490234 8.28289062 2.26730469 7.26953125 2.11523438 C4.84521588 1.75041022 2.42222202 1.37843254 0 1 C0 0.67 0 0.34 0 0 Z " fill="#97969D" transform="translate(322,204)"/>
<path d="M0 0 C1 1 1 1 1.1875 4.3125 C1 8 1 8 -1 12 C-1 9.03 -1 6.06 -1 3 C-2.65 2.67 -4.3 2.34 -6 2 C-6.33 2.66 -6.66 3.32 -7 4 C-7.99 3.34 -8.98 2.68 -10 2 C-6.50971852 0.40444275 -3.84597567 -0.32049797 0 0 Z " fill="#ACAEB3" transform="translate(470,95)"/>
<path d="M0 0 C1.09570312 0.10183594 2.19140625 0.20367187 3.3203125 0.30859375 C4.16335938 0.39238281 5.00640625 0.47617187 5.875 0.5625 C5.875 0.8925 5.875 1.2225 5.875 1.5625 C-0.065 1.8925 -6.005 2.2225 -12.125 2.5625 C-7.12981896 0.06490948 -5.51442681 -0.52797704 0 0 Z " fill="#98979F" transform="translate(274.125,260.4375)"/>
<path d="M0 0 C-1.15173355 2.46800047 -2.04783565 4.04783565 -4 6 C-4.99 5.67 -5.98 5.34 -7 5 C-2.25 0 -2.25 0 0 0 Z " fill="#A9AAB3" transform="translate(63,112)"/>
</svg>
